<svg xmlns="http://www.w3.org/2000/svg" viewBox="0 0 257.81 129.85"><defs><style>.cls-1{fill:#fbeabf;}.cls-2{fill:#f9cf60;}.cls-3{fill:#695117;}.cls-4{fill:#71591e;}.cls-5{fill:#fde4a0;}.cls-6{fill:#392d16;}.cls-7{fill:#36311a;}</style></defs><title>Asset 7</title><g id="Layer_2" data-name="Layer 2"><g id="Layer_1-2" data-name="Layer 1"><path class="cls-1" d="M63.22,54.13c1.71-1,2.3-2.7,2.76-4.52,12.52-50,74.07-66.29,109.67-29.87a13.44,13.44,0,0,0,2,1.43c2.21,1.29,4.74,2.21,5.7,4.95.14.44.28.89.46,1.32,1.67,2.56,4.12,4.62,5,7.67,4.11,7.57,6.84,15.49,6.36,24.26-.72,3-2.71,4.7-5.47,6A361.39,361.39,0,0,1,139.47,84c-12.24,3.61-24.61,6.65-37,9.42a206.46,206.46,0,0,1-26,3.62c-2,.18-4,.25-5.77-1.06C64.1,88.09,63,78.5,62.12,68.82c-.65-1.75,0-3.6-.44-5.37-.08-1.21.56-2.33.45-3.54C62.8,58,61.86,55.87,63.22,54.13Z"/><path class="cls-2" d="M63.22,54.13c2.51,1.83,1.75,4,.64,6.19-4.22,5.26-10.78,6.84-16.21,10.18-8.32,5.14-16.79,10-22.62,18.13-3,5.55-2,8.8,3.62,10.83,11.15,4.05,22.67,3.76,34.17,2.42,4-.47,8.35.62,12.12-1.78,10.1,1.15,19.58-2.43,29.31-4,13.07-2.07,25.81-5.69,38.38-9.7,11-3.5,22.27-6.13,32.66-11.09,5.7-2.72,11.94-4,17.37-7.27,9.17-4.9,18.66-9.21,27.29-15.16a67.57,67.57,0,0,0,11.93-10.36c4.76-5.26,3.55-10-3.07-12.57a56,56,0,0,0-7.21-1.84c-11.56-3.13-23.16-.69-34.74-.26-1.64.06-3.31.73-4.62-.85-1.43-2-3.72-3.37-4.56-5.85,20.36-3.69,40.81-5.7,61.49-3.15a35.21,35.21,0,0,1,12.38,3.63c6.51,3.46,8,8.52,4.2,14.91-2.85,4.78-7,8.44-11.36,11.77C229.58,59.58,212.89,67.41,196,74.78c-1.06.46-2.07,1-3.11,1.54-4.8,5.33-11.69,7-17.94,9.21-11.23,4-22.49,7.9-34,11-13,3.46-25.93,6.9-39.07,9.64-4.54,1-9,2-13.66,2.57-2.55.31-4.94.48-7.32-.52-11.23,1.12-22.45,2.42-33.7,3.33a117.91,117.91,0,0,1-30.82-1.16A33.56,33.56,0,0,1,5.92,107c-6.07-3.37-7.5-8.13-4.17-14.19,2.86-5.21,7.28-9,11.93-12.56,14.56-11,30.93-18.77,47.62-25.89A6.37,6.37,0,0,1,63.22,54.13Z"/><path class="cls-1" d="M80.81,108.21c9.57-2,19.2-3.75,28.71-6a590.59,590.59,0,0,0,58.23-16.64c8.43-2.93,16.31-7.34,25.09-9.26-3.21,25.59-26.53,48.87-53.05,52.71C116.56,132.37,96.75,125.67,80.81,108.21Z"/><path class="cls-2" d="M186.48,34.93c-.49-2.86-3.26-4.31-4.23-6.86,12.84-2.14,25.72-2.92,38.66-1a28.21,28.21,0,0,1,8.17,2.12c6.24,2.8,7.45,8.46,3,13.75-6.22,7.39-14.29,12.37-22.55,17a143.94,143.94,0,0,1-15.21,7.49A296.6,296.6,0,0,1,154.65,83c-16.58,5.09-33.18,10.1-50.23,13.43Q92.77,98.69,81,100.59a11.18,11.18,0,0,1-6.33-.37c-1.18-.5-1.65.12-1.9,1.16-14.52,1.7-29,3.49-43.32-1.37-5.63-1.91-7-4.46-5.82-10.14,4.47-8.76,12.61-13.43,20.54-18.31A133.83,133.83,0,0,1,58.27,64c1.41-.65,2.72-2.15,4.57-1,1.17,1.64,1.09,3.51,1,5.38-.9,2.46-2.73,4-4.91,5.34C55,76.17,51,78.63,47.74,82c-4.92,5-4.08,8.49,2.61,10.08a46.74,46.74,0,0,0,15.22,1.56,7.68,7.68,0,0,1,5.66,1.31c10.37.28,20.57-1.58,30.64-3.51a371.27,371.27,0,0,0,36.25-9c16.59-4.94,32.87-10.62,48.46-18.17,2.54-1.24,6.15-1.13,7-4.85,4.31-3.9,9.69-6.29,14.11-10,.5-.43,1.12-.72,1.59-1.19,2-2,4.32-4.17,3.69-7.22s-3.69-3.57-6.32-4c-5.06-.81-10.12-2.12-15.3-1.38C189.61,35.75,188.11,35,186.48,34.93Z"/><path class="cls-3" d="M62.84,63C48.74,69.4,34.6,75.75,25.09,88.86c-.71-.4-.72-1.16-.95-1.81,3.55-5.92,9.28-9.42,14.77-13.13,7.88-5.31,16.43-9.44,25-13.6C64.59,61.62,63.32,62.15,62.84,63Z"/><path class="cls-4" d="M222,27.89a148.1,148.1,0,0,0-34.32.14,45.19,45.19,0,0,1-5.46,0c0-.34,0-.69,0-1,12.65-1.6,25.3-2.84,38-1a20.15,20.15,0,0,1,2.8.79C223.28,27.71,222.45,27.6,222,27.89Z"/><path class="cls-5" d="M73,100.09c-.14-.09-.4-.18-.39-.27s.13-.6.21-.6c23.08-.73,45-7.22,67-13.39,13.15-3.68,26-7.93,38.75-12.85,5.23-2,10.29-4.49,15.44-6.75a1.66,1.66,0,0,1,.07,2.42c-8.38,4.7-17.37,8.06-26.35,11.26a488.59,488.59,0,0,1-51.89,15.52C104.26,98.16,92.41,99.9,80.64,102a6.72,6.72,0,0,1-5.3-.79A2.32,2.32,0,0,1,73,100.09Z"/><path class="cls-6" d="M194.12,68.65c0-.81-.05-1.62-.07-2.43,11-4.65,21.5-10.28,30.86-17.82a40.59,40.59,0,0,0,3.31-3q12-12.06-4.27-17c-.64-.19-1.28-.35-1.92-.53l1-1.08c5.26,1,11.17,1.76,13,7.66s-2.82,9.63-6.59,13C219.06,56.8,206.77,63.07,194.12,68.65Z"/><path class="cls-7" d="M73,100.09l2.29,1.1c-.33,1.15-1.21,1.41-2.28,1.52C60.61,104,48.15,105,35.7,103a36.79,36.79,0,0,1-7.2-2c-7.39-2.85-8.71-7.23-4.36-13.93.31.61.63,1.21.95,1.81-1.21,5.94.39,8.67,6.57,10.64,7.86,2.49,16,2.63,24.14,2.27C61.56,101.51,67.38,101.58,73,100.09Z"/></g></g></svg>