<svg xmlns="http://www.w3.org/2000/svg" viewBox="0 0 128.14 127.91"><defs><style>.cls-1{fill:#018fb2;}.cls-2{fill:#029fc6;}.cls-3{fill:#029fc5;}.cls-4{fill:#0190b2;}.cls-5{fill:#018fb3;}</style></defs><title>Asset 2</title><g id="Layer_2" data-name="Layer 2"><g id="Layer_1-2" data-name="Layer 1"><path class="cls-1" d="M117,99.33c-4.91,8.88-12.67,14.74-21.1,19.9-19.76-5.48-40-6.49-60.31-5.77-2.19.08-3.72.47-2.48,3.2a2.59,2.59,0,0,1-.23,2.83c-18-10.2-28.5-25.74-31.95-46C-.55,64.61-.53,55.71,2.83,47.12c2.32,1.29,2.25,3.53,2.1,5.68-.2,2.81.8,3.81,3.74,3.67,11.61-.54,23.23-.4,34.85-.39,15.31,0,30.36,2.47,45.48,4.47A220.58,220.58,0,0,1,119.12,67c4.4,1.23,5.16.46,5.63-4.08.33-3.29-1.31-7.1,2.21-9.69,2.12,11,1.54,21.74-2.95,32.12a71.27,71.27,0,0,0-23-2.9c-13.25.21-26.57-1-39.69,1.92-1.46.33-2.91.71-4.35,1.07-1.79.44-3.82.9-4.06,3.09s1.8,3.09,3.44,3.7c6.06,2.23,12.09,4.51,18.47,5.85,8.93,1.88,18,2.93,27,4.33,4.22.66,7.85.45,11.18-2.39C114.05,99.08,115.46,98.4,117,99.33Z"/><path class="cls-2" d="M127,53.25c0,4.49-.16,9,0,13.47.13,3.39-1,4.49-4.38,3.61-8.67-2.26-17.25-5-26.13-6.38-26.92-4.33-53.91-7.37-81.26-5.1-2.91.24-5.87-.2-8.85.34-3.58.65-5-1.26-4.16-4.67a20.12,20.12,0,0,0,.63-7.4,6.55,6.55,0,0,1,1.11-3.84c1.91-3.46,4.67-3.87,8.42-3.16A83.79,83.79,0,0,0,40,40.29c2-.28,5-.32,4.91-3.09,0-2.5-2.93-3-4.91-3.42-6.46-1.35-12.78-3.31-19.49-3.47-6-.15-7.15-2.49-4.54-7.9,10.82-13.06,24.88-20,41.57-22C90.31-3.53,122,20.59,127,53.25Z"/><path class="cls-2" d="M117,99.33c-5.73,7.61-13.28,5.78-21.09,4.59q-10.81-1.65-21.55-3.64a102,102,0,0,1-20.78-6.75c-2.11-.89-4.53-2.29-4.27-5s2.71-4.29,5.16-4.84c5.82-1.33,11.71-3.1,17.6-3.2,13.77-.24,27.59-1.19,41.35.57,1.64.21,3.33.09,5,.24,2.63.23,4.93,1,5.57,4A35.67,35.67,0,0,1,117,99.33Z"/><path class="cls-3" d="M32.91,119.49C32,118.32,31,117.18,30.17,116c-.75-1-2.8-1.39-2.29-2.93.62-1.87,2.65-1.72,4.28-1.76,19.63-.42,39.24-.45,58.51,4.19,2.18.52,4.79.7,5.26,3.75C75,130.62,54,130.9,32.91,119.49Z"/><path class="cls-4" d="M16,22.41c-1.42,4.52.63,6,4.92,5.91,8.22-.13,16,2.07,23.73,4.67,2.29.77,3.89,2.13,4,4.52.11,2.73-2.13,3.58-4.26,4.1-11,2.7-22,2.45-33,.51-2.85-.5-5.15-.68-7.4,1.16C6.6,35.55,10,28.22,16,22.41Z"/><path class="cls-5" d="M89.1,52.29c-2.75,0-4.42.05-6.08,0-5.65-.2-11.34-1.1-13.89-6.81-2.93-6.56.67-12,4.93-16.6a13.86,13.86,0,0,1,11.72-4.54c9.33.85,17.81,3.93,24.85,10.23,5,4.42,4.07,10.27-1.93,13.31C102.22,51.15,95.41,53.16,89.1,52.29Z"/></g></g></svg>