<svg xmlns="http://www.w3.org/2000/svg" viewBox="0 0 130.42 130.61"><defs><style>.cls-1{fill:#fca968;}.cls-2{fill:#dd975c;}.cls-3{fill:#df975c;}.cls-4{fill:#de975c;}.cls-5{fill:#dd975d;}</style></defs><title>Asset 4</title><g id="Layer_2" data-name="Layer 2"><g id="Layer_1-2" data-name="Layer 1"><path class="cls-1" d="M113.49,108.63c-16.78,21.51-51,28.5-77.21,15.29-19.11-9.65-31.1-25-35-46.33,2.65-3.2,5.68-1.54,8.66-.68,10.48,3,20.91,6.29,32.46,7a6.8,6.8,0,0,0-4.1-3.68c-10-4.36-20.08-8.74-30.58-11.92-3-.9-5.54-2.16-7.42-4.65A53.6,53.6,0,0,1,9.2,32.46c4.35-2.37,8.47,0,12.56.85,13.84,2.74,27.46,6.79,41.8,6.15,1-.05,2,0,3-.07s2.52,0,2.85-1.45-.7-2.2-1.66-2.85a144.87,144.87,0,0,0-14-8.7c-6.93-3.64-14.16-6.64-21.28-9.88-2.07-.94-4.57-1.61-4.16-4.76C49.19-2.06,71.29-3.76,93.6,7c20.47,9.86,32.64,26.6,35.76,49.44.67,1.25.36,2.6.38,3.91.07,6.55-1.1,7.5-7.64,5.6-7.8-2.25-15.71-4-23.65-5.7a18.16,18.16,0,0,0-8,0c4.22,3.3,8.49,5,12.67,6.8,6.7,2.9,13.63,5.18,20.43,7.82,2.23.87,4.89,1.55,4.79,4.83a33.13,33.13,0,0,1-4.27,12.89c-3,2-6.08,1.22-9.1.4-5.71-1.55-11.5-1.33-17.3-1.12-1.31,0-2.87.14-3.38,1.61s.85,2.4,1.78,3.27c3.68,3.46,8.31,5.41,12.62,7.86C110.58,105.62,112.71,106.33,113.49,108.63Z"/><path class="cls-2" d="M28.32,11.75C33.07,15.21,38.7,16.89,44,19.18A173.3,173.3,0,0,1,68.39,32.71a13,13,0,0,1,3,2.64c1.06,1.28,2.16,2.75,1.41,4.53s-2.7,1.59-4.34,1.73C56,42.67,43.92,40.28,31.87,37.9c-7.62-1.51-15.12-3.61-22.67-5.44A54.47,54.47,0,0,1,28.32,11.75Z"/><path class="cls-3" d="M.26,63.64A226.09,226.09,0,0,1,42.33,80.05c1.9,1,5.09,2.2,4,4.86-1,2.35-4,1.48-6.32,1.15A162.57,162.57,0,0,1,6.68,78c-1.65-.59-3.62-.32-5.44-.44C-.21,73-.16,68.34.26,63.64Z"/><path class="cls-4" d="M128.38,79.66c-4.42-3.09-9.7-4.15-14.62-6-8.19-3.15-16.41-6.21-24-10.73-1.66-1-4.2-2-3.64-4.17s3.17-1,4.87-1.12c9.79-.4,18.88,3.18,28.25,5.16,1.29.27,2.51.86,3.78,1.22,5.82,1.67,6.17,1.4,6.17-4.59,0-1,.1-2,.15-3A46,46,0,0,1,128.38,79.66Z"/><path class="cls-5" d="M113.49,108.63A49.49,49.49,0,0,1,92,95.75c-2.52-2.65-1.68-4.52,1.59-5.39,5.74-1.54,11.61-1,17.38-.47,4.44.4,8.79,1.74,13.18,2.66A43.09,43.09,0,0,1,113.49,108.63Z"/></g></g></svg>