<svg xmlns="http://www.w3.org/2000/svg" viewBox="0 0 157.49 157.6"><defs><style>.cls-1{fill:#fb5b3e;}.cls-2{fill:#eb543c;}.cls-3{fill:#cd4b37;}.cls-4{fill:#e15036;}.cls-5{fill:#e14e37;}.cls-6{fill:#e15033;}.cls-7{fill:#e24f33;}.cls-8{fill:#d3482e;}</style></defs><title>Asset 3</title><g id="Layer_2" data-name="Layer 2"><g id="Layer_1-2" data-name="Layer 1"><path class="cls-1" d="M9.14,114.58c-12-23-11.92-46.24-1.32-69.52C23.51,10.62,62.66-7.28,99.36,2.79c13.08,3.59,24.66,9.64,34,19.6,7.4,14.86,7.73,30.24,3.23,45.91-1.38,4.82-2.61,5.59-8,6.29,3.41,2,4.08,4.9,3,8.36-1.78,5.47-5.25,10-8.56,14.52-1.48,2-3.86,2.31-6.31,2.27a116.56,116.56,0,0,0-12,.15c-1,.08-2.16.29-2.24,1.53s1.07,1.5,2,1.7a18.62,18.62,0,0,0,2.48.27c2.26.15,4.47.62,5.11,3.14s-.93,4.38-2.94,5.82c-2.71,1.93-5.79,2.31-9,2.33-13.15,0-26.29,0-39.44,0-1.86,0-3.92-.46-5.74,1.25,1.84,1.76,3.9,1.26,5.77,1.29,8.66.1,17.31-.06,26,.09,2.66,0,5.89,0,6.25,3.47s-2.59,4.44-5.5,5.23A117.52,117.52,0,0,1,73,129.19a7,7,0,0,0-2.11,1.2c-2.38,2.14-5.5,2.6-8.36,2.83a102.58,102.58,0,0,1-34.42-2.66C18.87,128.16,13.5,122.21,9.14,114.58Z"/><path class="cls-2" d="M71.37,127.52c4.48-2,9.59-.48,14-2.56,2.3-1.08,6.45-1.17,6.11-4s-4.22-1.39-6.49-1.43c-9.47-.17-19-.07-28.44-.08-2.57,0-5.65-.06-5.79-3.26-.16-3.65,3.07-3.73,5.81-3.73,14.48,0,28.95,0,43.42,0a14.73,14.73,0,0,0,8.54-2.22c1.25-.83,2.75-1.74,2.25-3.49s-2.15-1.24-3.43-1.3-2.66,0-4,0c-2.6-.08-4.78-1-4.83-3.9s2.07-4,4.68-4q7.23-.08,14.47.09c1.35,0,2.7.39,3.52-1.07,2.77-4.9,6.61-9.18,8.43-14.64,1.12-3.37.73-5.55-3.56-5.46-1.65,0-4.38.73-4.33-1.91.06-3,3-2.15,4.73-2,5,.53,7.35-1.26,8.57-6.39,3.16-13.25,3-26.17-1.88-38.93-.67-1.73.31-3.25.18-4.88a72.42,72.42,0,0,1,23.72,48.08c3.36,36.49-15.83,68-49.87,81.59-23.81,9.49-47,6.28-69.27-5.73a8.34,8.34,0,0,1-1.73-1.73c-2.61-3.06-2.26-4.43,1.44-5,3.42-.58,7,.24,10.41-1.17a26.62,26.62,0,0,0-11.65-.55c-6.89,1.45-11.37-1.85-15.59-6.37a22,22,0,0,0-1.62-1.88c-4.26-4.4-7.93-9.19-10.09-15,6.76,10.32,17.23,13.76,28.63,15.7,11,1.87,22,2.57,32.64-1.75,7.3,1.88,14.75.5,21,1-4,0-9.08,0-14.19,0C75,129.47,72.8,129.65,71.37,127.52Z"/><path class="cls-3" d="M19.23,129.58c1.94.75,3,2.58,4.55,3.79,2.76,2.14,5.49,3.51,9.42,2.6,5.32-1.24,10.89-.49,16.35-.31a3,3,0,0,1,3.18,2.61c.14,2-1.49,3-3.23,3.06-3.8.19-7.63.26-11.43.13-2.91-.1-3.08,1-1.83,3.14C29.61,140.69,23.69,136,19.23,129.58Z"/><path class="cls-4" d="M32.77,84.51c-5.31,0-10.61,0-15.91,0-1.84,0-4.07,0-4.1-2.49s1.93-3.4,4.1-3.42q15.92-.09,31.82,0c2.12,0,4.21.76,4.08,3.31-.11,2.31-2.14,2.62-4.08,2.62Z"/><path class="cls-5" d="M67.26,27.51c-3.82,0-7.65,0-11.47,0-2.1,0-4.23-.28-4.2-3.06,0-2.43,1.91-2.87,3.86-2.88q12,0,24,0c2,0,3.77.61,3.7,3s-1.91,2.87-3.87,2.88C75.25,27.53,71.26,27.51,67.26,27.51Z"/><path class="cls-6" d="M107,47.58c3.33,0,6.67-.11,10,.05,1.79.08,4,.32,3.89,2.84-.09,1.89-1.75,2.89-3.52,2.92q-10.48.13-21,0c-1.75,0-3.46-.9-3.41-2.92s1.79-2.76,3.54-2.83c3.49-.12,7,0,10.49,0Z"/><path class="cls-7" d="M114.22,43.46c-3.15,0-6.3.06-9.44,0-1.85,0-3.25-.88-3.22-3s1.5-2.86,3.33-2.87q9.93-.08,19.87,0c1.82,0,3.35.73,3.31,2.86s-1.75,2.8-3.43,2.88c-3.47.17-7,0-10.42,0Z"/><path class="cls-8" d="M71.37,127.52c8.11,0,16.22,0,24.34,0,1.56,0,3.85-.33,3.86,2s-2.29,1.95-3.85,2q-9.69.09-19.37,0c-2.42,0-4.58-.7-5.94-2.93Z"/></g></g></svg>