<svg xmlns="http://www.w3.org/2000/svg" viewBox="0 0 151.8 151.62"><defs><style>.cls-1{fill:#f9eed7;}.cls-2{fill:#dfc37c;}.cls-3{fill:#e0834d;}.cls-4{fill:#e1824c;}.cls-5{fill:#eed184;}.cls-6{fill:#e1824d;}.cls-7{fill:#c97745;}.cls-8{fill:#e6dac6;}.cls-9{fill:#efd085;}.cls-10{fill:#c97647;}.cls-11{fill:#c87745;}.cls-12{fill:#e7d7c1;}.cls-13{fill:#bf7a53;}</style></defs><title>Asset 5</title><g id="Layer_2" data-name="Layer 2"><g id="Layer_1-2" data-name="Layer 1"><path class="cls-1" d="M.28,78.4a22,22,0,0,1,.4-9.1c2.85-3.58,7.19-3.27,11-3.82C29,63,46.11,59.71,63.39,57.27,81.16,54.77,98.91,52,116.86,51c7.55,1.5,8.71,3,7,10.37-1.38,5.76-2.82,11.57-5.9,16.77-1.21,1.69-3.27,1.67-4.93,2.46a173.87,173.87,0,0,1-39.16,1.56c-10.91-.75-21.81-1.58-32.7-2.58a197.62,197.62,0,0,0-35.25,0C4,79.75,1.83,80.22.28,78.4Z"/><path class="cls-1" d="M10.52,113.66A49.36,49.36,0,0,1,2,91.17c1.54-2.06,3.86-2.62,6.17-2.8,15.58-1.19,31.16-2,46.79-.44C72,89.64,89.13,90.1,106,86.17c6.32,1.51,7.66,4.91,4,10.25-1.52,2.18-3.71,3.8-5.2,6a6.43,6.43,0,0,1-4.16,1.49c-20.62,3.24-41.23,6.51-62,8.75-6.91.75-13.76,2.11-20.77,1.93A29,29,0,0,1,10.52,113.66Z"/><path class="cls-2" d="M139.27,117.24c-16.27,24.21-39.12,35.46-68.12,34.3-8.5-.34-16.78-2-24.43-5.95.84-3.69,4.22-4.54,7-5.8,10.89-5,20.93-11.43,30.73-18.28a4.4,4.4,0,0,1,2.4-.62c15.22-2.54,30.62-3.4,45.91-5.32C135,115.29,137.73,114.18,139.27,117.24Z"/><path class="cls-3" d="M116.83,53.27C94,54.63,71.54,58.42,49,61.87Q24.85,65.56.67,69.31A33.85,33.85,0,0,1,3,56.1a10.26,10.26,0,0,1,5.8-2.67C40.19,51,70.55,42.59,101.52,37.64c4.75-.76,9.51-1.5,14.27-2.18,2.58-.36,5.35-.65,7.66,1.24,4.49,5.11,2.4,10.34.26,15.56C121.57,53.69,119,52.21,116.83,53.27Z"/><path class="cls-4" d="M86,122.42l-1,.94c-12.56,4.72-26.18,4.88-38.9,9-5.23,1.7-10.24,4.83-16.16,3.68-8-6.18-15-13.12-19.42-22.41,5.47-2.48,11.39-1.35,17.07-1.89,22.63-2.16,45-6.09,67.53-9.05,2-.25,3.95-.26,5.93-.38,1.83,1.75,1.2,3.69.09,5.36C97.17,113.68,93.21,119.73,86,122.42Z"/><path class="cls-5" d="M21.91,22.83C46.3-3.35,91.47-7.74,118.52,13.44a5.16,5.16,0,0,1-3.83,2.9c-12.46,1.46-24,6.5-36.16,9.15C68.35,27.71,58,27,47.74,26.21c-7-.51-14-.17-20.89-1C24.86,25,22.79,25.22,21.91,22.83Z"/><path class="cls-6" d="M21.91,22.83c16.24,0,32.41,2.28,48.66,1.64a44.11,44.11,0,0,0,12.2-2.36c11.68-3.85,23.51-7.08,35.74-8.67.57,1,1,2.12,2.45,2,5.65,6.58,5.83,7.68,2.15,12.92a12.14,12.14,0,0,1-4.69,2C99,32.69,79.66,35.68,60.24,38.05,45.92,39.8,31.62,41.63,17.3,43.38c-2.77.34-6.1,1.15-8.11-2.14C11.48,33.76,16.62,28.24,21.91,22.83Z"/><path class="cls-1" d="M9.19,41.24c8.71.86,17.13-1.42,25.66-2.44,28-3.34,56-7,84-10.5,2.36-.43,5-1.48,6.47,1.39,1.31,2.64,1.25,5.39-1.35,7.5l-.92.32c-16,.77-31.61,4.12-47.25,7.2C53.46,49.1,31.21,54,8.46,55.83,6.64,56,4.81,56,3,56.1,4.12,50.76,5.5,45.52,9.19,41.24Z"/><path class="cls-4" d="M106.91,88.3c-12.77,2.55-25.62,4.45-38.66,3a279,279,0,0,0-44.86-1.6C16.25,90,9.13,90.66,2,91.17.3,87.06.17,82.74.28,78.4c16.36-2.93,32.78-1.87,49.17-.44,21.19,1.85,42.36,3.74,63.6.63,4.44,2.22,4.31,4.06-.58,8.72C110.67,88,108.68,87.48,106.91,88.3Z"/><path class="cls-7" d="M86,122.42c4-4.52,8-9,11.92-13.6,1.56-1.85,3.18-3.81,3.12-6.49l3-1c6.2-4.08,13.45-3,20.26-3.93,5.89-.76,11.92-.28,17.89-.15,2.19.05,4.36.19,5.55,2.5a50.06,50.06,0,0,1-8.48,17.53q-21.93,2.27-43.86,4.51C92.28,122.07,89.14,122.21,86,122.42Z"/><path class="cls-8" d="M147.75,99.71c-12-1.09-23.87-.07-35.77,1.1-2.63.26-5.29.33-7.93.48,1.16-2.78,3.52-4.8,4.91-7.37,1.15-2.11,3.48-5.55-2-5.62l5.16-2c5.39-4.29,12.17-4.92,18.41-7,4.4-1.44,8.92-2.49,13.4-3.64,2.55-.65,5.55-1.82,7.8,1A61.81,61.81,0,0,1,147.75,99.71Z"/><path class="cls-8" d="M116.83,53.27l6.21-1A28.37,28.37,0,0,1,147.1,51a34.13,34.13,0,0,1,3.7,15.29,9.56,9.56,0,0,1-4.72,3.45c-7.29,2.6-14.41,5.69-21.83,7.94-2.41.73-5,2-7.26-.6,1.61-5.71,3.45-11.37,4.78-17.14C123.22,53.7,123,53.65,116.83,53.27Z"/><path class="cls-9" d="M29.94,136.06c11.56-5.53,23.92-8.39,36.44-10.57,6.15-1.07,12.32-2.21,18.62-2.13-11.84,9-24.79,16.08-38.28,22.23C40.44,143.62,35,140.13,29.94,136.06Z"/><path class="cls-10" d="M117,77.12c10-1.9,19.1-6.21,28.58-9.52,1.71-.59,3.33-1.49,5.23-1.27,1.17,3.4,1.08,6.91.88,10.43-7.3.38-14.06,3.08-21,4.9-6.19,1.62-12.24,3.74-18.6,4.64,1.47-2.43,4.55-4.65,1-7.71Z"/><path class="cls-11" d="M147.1,51,123,52.26c-.71-4.92,2.21-9.83,0-14.75l-.06-.32c5.42-4,11.23-3.67,17.2-1.53C143.12,40.5,146.25,45.26,147.1,51Z"/><path class="cls-12" d="M140.18,35.66c-5.64,1.55-11.49.74-17.2,1.53,2.28-6.82,1.6-8.29-4.14-8.89l4.22-1.05c3-2.51,6.19-3.29,9.74-1.22A42.66,42.66,0,0,1,140.18,35.66Z"/><path class="cls-13" d="M132.8,26c-3.22.58-6.4,1.54-9.74,1.22,1.47-4.31-.19-8.06-2.1-11.77C125.81,18,129.46,21.84,132.8,26Z"/></g></g></svg>