<svg xmlns="http://www.w3.org/2000/svg" viewBox="0 0 78.33 78.21"><defs><style>.cls-1{fill:#cfd0d2;}.cls-2{fill:#adadaf;}</style></defs><title>Asset 6</title><g id="Layer_2" data-name="Layer 2"><g id="Layer_1-2" data-name="Layer 1"><path class="cls-1" d="M21.44,4.26c3.4-1.6,6.83-3.13,10.63-3.5,2.83-.95,4.41.27,5.29,2.92A34.15,34.15,0,0,0,40,10.13c2.53,4.36,6,5.39,10.51,3.11,2.38-1.19,4.59-2.68,6.91-4,1.51-.84,3-2.33,5-1.43a22.27,22.27,0,0,1,8.07,7.86c.72,2.55-.92,3.9-2.56,5.41-3.44,3.16-7.91,4.77-11.45,7.78-1.17,1-2.51,2.05-2.12,3.64.49,2,2.43,1.25,3.8,1.29,4.61.13,9.23-.3,13.78,1,2.91.85,5.11,2.24,6.28,5.07A28.68,28.68,0,0,1,75.1,54.81c-2.07,1.15-3.83.09-5.64-.75C65,52,60.93,51.86,57.15,55.6c-3.16,3.12-7,3.29-11.12,2-7.29-2.2-10.26.31-9.79,8.19.18,2.81.14,5.64.34,8.45a4,4,0,0,1-1.23,3.61C19.34,77.2,4.8,64.46,1.3,48.05,0,44.12,2,43.93,4.75,45.27c1.92.94,3.53,2.49,5.35,3.63,6,3.75,14.4.86,16.48-5.52,1.23-3.77.52-6.88-2.89-9.14a36.85,36.85,0,0,1-4.47-3.17c-3.81-3.47-4.63-7-1.62-11s5.22-7.58,2.92-12.62A2.92,2.92,0,0,1,21.44,4.26Z"/><path class="cls-2" d="M21.44,4.26A43.59,43.59,0,0,0,22.9,8.47c1.91,4.11,1.11,7.35-2.06,10.73-5,5.3-4.4,8,1.64,11.8,7.15,4.53,9,10.17,5.1,15.94a14,14,0,0,1-19,3.62c-1.77-1.23-3.43-2.61-5.11-4-2.37-1.91-1.69.59-2.14,1.46C-3.07,33.47,3.91,15.65,17.62,6.5,18.84,5.68,20.16,5,21.44,4.26Z"/><path class="cls-2" d="M35.35,77.89c-1-5.68-2.25-11.41-.9-17.16,1.48-6.3,4.77-8,10.66-5.65,4.41,1.81,8,1.92,11.7-1.79C61.06,49,64.65,49,70.39,52c1.61.84,3.14,1.85,4.71,2.78A37.8,37.8,0,0,1,35.35,77.89Z"/><path class="cls-2" d="M78.27,40c-6.86-4.26-14.38-4.61-22.09-3.68-1.48.18-3,.84-4.12-.65-1.21-1.68-.79-3.52.12-5.18,1.74-3.21,4.9-4.79,7.86-6.59,3.81-2.3,7.81-4.38,10.5-8.13A34.61,34.61,0,0,1,78.27,40Z"/><path class="cls-2" d="M62.47,7.86c-3.83,4.05-8.73,6.59-13.76,8.53-3.89,1.5-7.47-.35-9.91-3.83a25.28,25.28,0,0,1-3.56-8.7C34.78,2,34,.88,32.07.76,43.24-1.29,53.45.72,62.47,7.86Z"/></g></g></svg>